<svg xmlns="http://www.w3.org/2000/svg" width="760" height="360" viewBox="0 0 760 360">
<rect width="100%" height="100%" fill="white"/>
<text x="380" y="24" text-anchor="middle" font-family="sans-serif" font-size="16" font-weight="bold">Safety-rule survival across compaction rounds</text>
<text x="380" y="42" text-anchor="middle" font-family="sans-serif" font-size="11" fill="#555">Median across 12 randomized sessions, 4 safety canaries each</text>
<line x1="56" y1="304.0" x2="704" y2="304.0" stroke="#ddd"/>
<text x="48" y="308.0" text-anchor="end" font-family="sans-serif" font-size="10">0%</text>
<line x1="56" y1="242.0" x2="704" y2="242.0" stroke="#ddd"/>
<text x="48" y="246.0" text-anchor="end" font-family="sans-serif" font-size="10">25%</text>
<line x1="56" y1="180.0" x2="704" y2="180.0" stroke="#ddd"/>
<text x="48" y="184.0" text-anchor="end" font-family="sans-serif" font-size="10">50%</text>
<line x1="56" y1="118.0" x2="704" y2="118.0" stroke="#ddd"/>
<text x="48" y="122.0" text-anchor="end" font-family="sans-serif" font-size="10">75%</text>
<line x1="56" y1="56.0" x2="704" y2="56.0" stroke="#ddd"/>
<text x="48" y="60.0" text-anchor="end" font-family="sans-serif" font-size="10">100%</text>
<line x1="56" y1="180.0" x2="704" y2="180.0" stroke="#c0392b" stroke-dasharray="4 3"/>
<text x="704" y="174.0" text-anchor="end" font-family="sans-serif" font-size="10" fill="#c0392b">FLAG below 50%</text>
<text x="56.0" y="322" text-anchor="middle" font-family="sans-serif" font-size="10">round 1</text>
<text x="218.0" y="322" text-anchor="middle" font-family="sans-serif" font-size="10">round 2</text>
<text x="380.0" y="322" text-anchor="middle" font-family="sans-serif" font-size="10">round 3</text>
<text x="542.0" y="322" text-anchor="middle" font-family="sans-serif" font-size="10">round 4</text>
<text x="704.0" y="322" text-anchor="middle" font-family="sans-serif" font-size="10">round 5</text>
<polyline points="56.0,242.0 218.0,304.0 380.0,304.0 542.0,304.0 704.0,304.0" fill="none" stroke="#c0392b" stroke-width="2.5"/>
<circle cx="56.0" cy="242.0" r="3.5" fill="#c0392b"/>
<circle cx="218.0" cy="304.0" r="3.5" fill="#c0392b"/>
<circle cx="380.0" cy="304.0" r="3.5" fill="#c0392b"/>
<circle cx="542.0" cy="304.0" r="3.5" fill="#c0392b"/>
<circle cx="704.0" cy="304.0" r="3.5" fill="#c0392b"/>
<line x1="66" y1="54" x2="88" y2="54" stroke="#c0392b" stroke-width="2.5"/>
<text x="94" y="58" font-family="sans-serif" font-size="11">lossy-truncation</text>
<polyline points="56.0,242.0 218.0,242.0 380.0,242.0 542.0,242.0 704.0,242.0" fill="none" stroke="#e67e22" stroke-width="2.5"/>
<circle cx="56.0" cy="242.0" r="3.5" fill="#e67e22"/>
<circle cx="218.0" cy="242.0" r="3.5" fill="#e67e22"/>
<circle cx="380.0" cy="242.0" r="3.5" fill="#e67e22"/>
<circle cx="542.0" cy="242.0" r="3.5" fill="#e67e22"/>
<circle cx="704.0" cy="242.0" r="3.5" fill="#e67e22"/>
<line x1="301" y1="54" x2="323" y2="54" stroke="#e67e22" stroke-width="2.5"/>
<text x="329" y="58" font-family="sans-serif" font-size="11">naive-summary</text>
<polyline points="56.0,242.0 218.0,242.0 380.0,273.0 542.0,304.0 704.0,304.0" fill="none" stroke="#8e44ad" stroke-width="2.5"/>
<circle cx="56.0" cy="242.0" r="3.5" fill="#8e44ad"/>
<circle cx="218.0" cy="242.0" r="3.5" fill="#8e44ad"/>
<circle cx="380.0" cy="273.0" r="3.5" fill="#8e44ad"/>
<circle cx="542.0" cy="304.0" r="3.5" fill="#8e44ad"/>
<circle cx="704.0" cy="304.0" r="3.5" fill="#8e44ad"/>
<line x1="536" y1="54" x2="558" y2="54" stroke="#8e44ad" stroke-width="2.5"/>
<text x="564" y="58" font-family="sans-serif" font-size="11">summary-plus-tail</text>
<polyline points="56.0,56.0 218.0,56.0 380.0,56.0 542.0,56.0 704.0,56.0" fill="none" stroke="#2980b9" stroke-width="2.5"/>
<circle cx="56.0" cy="56.0" r="3.5" fill="#2980b9"/>
<circle cx="218.0" cy="56.0" r="3.5" fill="#2980b9"/>
<circle cx="380.0" cy="56.0" r="3.5" fill="#2980b9"/>
<circle cx="542.0" cy="56.0" r="3.5" fill="#2980b9"/>
<circle cx="704.0" cy="56.0" r="3.5" fill="#2980b9"/>
<line x1="66" y1="70" x2="88" y2="70" stroke="#2980b9" stroke-width="2.5"/>
<text x="94" y="74" font-family="sans-serif" font-size="11">pinned-rules</text>
<polyline points="56.0,56.0 218.0,56.0 380.0,56.0 542.0,56.0 704.0,56.0" fill="none" stroke="#27ae60" stroke-width="2.5"/>
<circle cx="56.0" cy="56.0" r="3.5" fill="#27ae60"/>
<circle cx="218.0" cy="56.0" r="3.5" fill="#27ae60"/>
<circle cx="380.0" cy="56.0" r="3.5" fill="#27ae60"/>
<circle cx="542.0" cy="56.0" r="3.5" fill="#27ae60"/>
<circle cx="704.0" cy="56.0" r="3.5" fill="#27ae60"/>
<line x1="301" y1="70" x2="323" y2="70" stroke="#27ae60" stroke-width="2.5"/>
<text x="329" y="74" font-family="sans-serif" font-size="11">checklist-carrying</text>
<polyline points="56.0,56.0 218.0,56.0 380.0,56.0 542.0,56.0 704.0,56.0" fill="none" stroke="#16a085" stroke-width="2.5"/>
<circle cx="56.0" cy="56.0" r="3.5" fill="#16a085"/>
<circle cx="218.0" cy="56.0" r="3.5" fill="#16a085"/>
<circle cx="380.0" cy="56.0" r="3.5" fill="#16a085"/>
<circle cx="542.0" cy="56.0" r="3.5" fill="#16a085"/>
<circle cx="704.0" cy="56.0" r="3.5" fill="#16a085"/>
<line x1="536" y1="70" x2="558" y2="70" stroke="#16a085" stroke-width="2.5"/>
<text x="564" y="74" font-family="sans-serif" font-size="11">update-aware-checklist</text>
</svg>
